<svg width="24" height="24" viewBox="0 0 24 24" fill="none" xmlns="http://www.w3.org/2000/svg">
<path d="M8.61994 13.81C8.61994 14.23 8.27994 14.57 7.86994 14.57C7.45994 14.57 7.10993 14.23 7.10993 13.81C7.10993 13.39 7.44994 13.06 7.86994 13.06C8.28994 13.06 8.61994 13.4 8.61994 13.81ZM16.1299 13.06C15.7199 13.06 15.3799 13.39 15.3799 13.81C15.3799 14.23 15.7099 14.57 16.1299 14.57C16.5499 14.57 16.89 14.23 16.89 13.81C16.89 13.39 16.5499 13.06 16.1299 13.06ZM21.7499 16.92C21.7699 17.13 21.6999 17.34 21.5599 17.5C21.4199 17.66 21.2199 17.75 20.9999 17.75H2.99994C2.78994 17.75 2.57995 17.66 2.43995 17.5C2.29995 17.34 2.22994 17.13 2.24994 16.92C2.56994 13.79 4.35993 11.03 7.04993 9.46998L5.76996 7.23997C5.62996 6.99997 5.71996 6.69998 5.94996 6.55998C6.18996 6.41998 6.48995 6.49997 6.62995 6.73997L7.92994 9.00999C10.4699 7.87999 13.5399 7.88999 16.0399 9.00999L17.34 6.73997C17.48 6.49997 17.79 6.41998 18.02 6.55998C18.26 6.69998 18.34 6.99997 18.2 7.23997L16.9199 9.46998C19.6199 11.04 21.3999 13.79 21.7199 16.92H21.7499ZM20.1299 16.25C19.6399 13.88 18.16 11.83 16.03 10.67L15.52 10.41C13.4 9.42999 10.6299 9.42 8.46991 10.42L7.94996 10.68C5.84996 11.83 4.35995 13.88 3.87995 16.25H20.1299Z" fill="#353535" style="fill:#353535;fill:color(display-p3 0.2078 0.2078 0.2078);fill-opacity:1;"/>
</svg>
