<svg width="24" height="24" viewBox="0 0 24 24" fill="none" xmlns="http://www.w3.org/2000/svg">
<path d="M19.32 15.0301C17.33 14.0901 17.28 12.38 17.29 12.05V12.02C17.29 10.82 17.8 9.94005 18.92 9.25005C19.1 9.14005 19.22 8.97006 19.26 8.76006C19.3 8.56006 19.26 8.35005 19.14 8.18005C18.26 6.91005 16.94 6.20006 15.21 6.07006C15.04 6.06006 14.87 6.07004 14.69 6.08004C14.75 6.02004 14.81 5.97006 14.87 5.91006C16.16 4.38006 16.05 2.94007 16.01 2.45007C15.98 2.04007 15.62 1.73006 15.22 1.76006C14.07 1.83006 12.76 2.49006 11.97 3.41006C11.13 4.36006 10.73 5.47006 10.76 6.63006C10.12 6.40006 9.31997 6.11004 8.55997 6.11004C5.90997 6.15004 3.22998 8.26005 3.22998 12.21C3.22998 13.34 3.43998 14.5201 3.84998 15.7201C4.34998 17.1701 6.31997 21.2601 8.77997 21.2601C8.79997 21.2601 8.82998 21.2601 8.84998 21.2601C9.43998 21.2501 9.91997 21.0601 10.38 20.8801C10.84 20.7001 11.28 20.5401 11.85 20.5401C12.36 20.5401 12.75 20.69 13.2 20.87C13.67 21.05 14.21 21.2601 14.91 21.2601C17.42 21.2201 19.22 17.4101 19.7 15.9501C19.82 15.5901 19.65 15.2001 19.31 15.0401L19.32 15.0301ZM13.11 4.39007C13.45 4.00007 13.96 3.65007 14.48 3.45007C14.4 3.87007 14.19 4.38005 13.73 4.93005C13.39 5.33005 12.9 5.77004 12.3 5.96004C12.4 5.41004 12.68 4.88007 13.11 4.39007ZM14.91 19.7501C14.51 19.7501 14.18 19.62 13.76 19.46C13.25 19.26 12.66 19.0301 11.87 19.0301C11.03 19.0301 10.38 19.2801 9.86996 19.4701C9.48996 19.6101 9.16996 19.7401 8.82996 19.7501C8.82996 19.7501 8.80996 19.7501 8.79996 19.7501C7.60996 19.7501 5.92998 17.0801 5.28998 15.2301C4.93998 14.1901 4.75998 13.17 4.75998 12.21C4.75998 9.09004 6.75998 7.64004 8.59998 7.61004C9.07998 7.61004 9.71997 7.84004 10.28 8.05004C10.82 8.25004 11.25 8.40005 11.64 8.40005C11.98 8.40005 12.35 8.26006 12.86 8.07006C13.53 7.82006 14.37 7.50005 15.11 7.56005C16.09 7.64005 16.86 7.94005 17.44 8.47005C16.35 9.38005 15.8 10.5701 15.8 12.0001C15.79 12.4601 15.85 14.66 18.08 16.05C17.4 17.72 16.05 19.7301 14.92 19.7501H14.91Z" fill="#353535" style="fill:#353535;fill:color(display-p3 0.2078 0.2078 0.2078);fill-opacity:1;"/>
</svg>
