<svg width="24" height="24" viewBox="0 0 24 24" fill="none" xmlns="http://www.w3.org/2000/svg">
<path d="M19.82 9.21002H18.73C18.56 9.21002 18.39 9.04001 18.39 8.87001C18.39 5.28001 15.47 2.26001 12 2.26001H8.64001C5.12001 2.26001 2.25 5.12001 2.25 8.65001V15.38C2.25 18.9 5.11001 21.77 8.64001 21.77H15.37C18.89 21.77 21.76 18.91 21.76 15.38V11.15C21.76 10.07 20.91 9.22002 19.83 9.22002L19.82 9.21002ZM20.25 15.37C20.25 18.06 18.06 20.26 15.36 20.26H8.63C5.94 20.26 3.73999 18.07 3.73999 15.37V8.64001C3.73999 5.95001 5.93 3.75002 8.63 3.75002H11.99C14.64 3.75002 16.88 6.09002 16.88 8.86002C16.88 9.86002 17.72 10.7 18.72 10.7H19.81C20.07 10.7 20.24 10.87 20.24 11.13V15.36L20.25 15.37ZM7.45999 8.91002C7.45999 8.32002 7.95999 7.82002 8.54999 7.82002H12.59C13.18 7.82002 13.68 8.32002 13.68 8.91002C13.68 9.50002 13.18 10 12.59 10H8.54999C7.95999 10 7.45999 9.50002 7.45999 8.91002ZM16.46 15.5C16.46 16.09 15.96 16.59 15.37 16.59H8.56C7.97 16.59 7.47 16.09 7.47 15.5C7.47 14.91 7.97 14.41 8.56 14.41H15.37C15.96 14.41 16.46 14.91 16.46 15.5Z" fill="#353535" style="fill:#353535;fill:color(display-p3 0.2078 0.2078 0.2078);fill-opacity:1;"/>
</svg>
