<svg width="24" height="24" viewBox="0 0 24 24" fill="none" xmlns="http://www.w3.org/2000/svg">
<path d="M22.08 10.21C22.02 9.84999 21.71 9.57999 21.34 9.57999H11.96C11.55 9.57999 11.21 9.91999 11.21 10.33V14.09C11.21 14.5 11.55 14.84 11.96 14.84H16.31C16.01 15.48 15.54 16.03 14.92 16.45C14.09 17.01 13.09 17.29 11.96 17.29C9.76002 17.29 7.80002 15.84 7.08002 13.66C6.90002 13.14 6.81 12.58 6.81 12C6.81 11.42 6.90003 10.88 7.09003 10.33C7.81003 8.15999 9.76997 6.70999 11.97 6.70999C13.26 6.70999 14.37 7.14 15.27 8C15.56 8.28 16.03 8.27999 16.32 7.98999L19.16 5.14001C19.3 5.00001 19.38 4.80001 19.38 4.60001C19.38 4.40001 19.29 4.20001 19.14 4.07001C17.19 2.23001 14.71 1.26001 11.97 1.26001C7.89997 1.26001 4.23997 3.53 2.40997 7.19C1.64997 8.71 1.26001 10.33 1.26001 12.01C1.26001 13.69 1.64997 15.32 2.40997 16.83C4.23997 20.49 7.90997 22.76 11.97 22.76C14.76 22.76 17.21 21.85 19.06 20.14C21.12 18.23 22.25 15.42 22.25 12.24C22.25 11.58 22.2 10.92 22.08 10.23V10.21ZM18.03 19.02C16.46 20.48 14.36 21.24 11.96 21.24C8.46002 21.24 5.31999 19.28 3.73999 16.14C3.07999 14.84 2.75 13.44 2.75 11.99C2.75 10.54 3.07999 9.15 3.73999 7.84C5.31999 4.69 8.46002 2.73999 11.96 2.73999C14.04 2.73999 15.95 3.39001 17.52 4.64001L15.74 6.42999C14.67 5.61999 13.38 5.20001 11.96 5.20001C9.12002 5.20001 6.57997 7.07001 5.65997 9.85001C5.42997 10.56 5.31 11.28 5.31 11.99C5.31 12.7 5.42997 13.46 5.65997 14.13C6.57997 16.91 9.11002 18.78 11.96 18.78C13.37 18.78 14.69 18.4 15.76 17.68C16.97 16.86 17.79 15.63 18.07 14.22C18.11 14 18.06 13.77 17.91 13.6C17.77 13.43 17.56 13.33 17.33 13.33H12.71V11.07H20.69C20.73 11.46 20.75 11.83 20.75 12.21C20.75 14.97 19.79 17.38 18.04 19.01L18.03 19.02Z" fill="#353535" style="fill:#353535;fill:color(display-p3 0.2078 0.2078 0.2078);fill-opacity:1;"/>
</svg>
