<svg width="24" height="24" viewBox="0 0 24 24" fill="none" xmlns="http://www.w3.org/2000/svg">
<path d="M20.21 9.60004L7.64001 2.70004C7.22001 2.43004 6.67999 2.28003 6.10999 2.28003C4.83999 2.28003 3.71 3.09004 3.38 4.23004C3.38 4.24004 3.38 4.26002 3.37 4.27002C3.37 4.29002 3.34998 4.32003 3.34998 4.34003C3.28998 4.59003 3.28003 4.86002 3.28003 5.05002V19.07C3.28003 19.31 3.27999 19.55 3.35999 19.78C3.35999 19.79 3.36 19.8 3.37 19.81C3.37 19.81 3.37 19.82 3.37 19.83C3.75 20.98 4.85998 21.78 6.09998 21.78C6.64998 21.78 7.15003 21.64 7.53003 21.39L20.24 14.46C21.17 13.98 21.76 13.02 21.76 11.97C21.69 10.97 21.09 10.06 20.2 9.59003L20.21 9.60004ZM6.10999 3.78003C6.38999 3.78003 6.65 3.85004 6.87 3.98004L14.77 8.32004L11.99 10.97L4.96997 4.33002C5.20997 4.00002 5.64999 3.78003 6.10999 3.78003ZM4.77002 17.85V6.21002L10.9 12.01L4.77002 17.85ZM6.77002 20.11C6.59002 20.23 6.36999 20.29 6.10999 20.29C5.65999 20.29 5.23999 20.07 4.98999 19.72L12 13.04L14.83 15.72L6.78003 20.11H6.77002ZM19.54 13.15L16.21 14.97L13.08 12.01L16.14 9.09003L19.48 10.93C19.48 10.93 19.48 10.93 19.49 10.93C19.92 11.16 20.23 11.61 20.26 12.04C20.26 12.48 19.97 12.92 19.53 13.15H19.54Z" fill="#353535" style="fill:#353535;fill:color(display-p3 0.2078 0.2078 0.2078);fill-opacity:1;"/>
</svg>
