<svg width="24" height="24" viewBox="0 0 24 24" fill="none" xmlns="http://www.w3.org/2000/svg">
<path d="M21.69 8.25002C21.63 6.98002 21.38 5.35003 20.02 3.99003C18.66 2.63003 17.03 2.38003 15.76 2.32003C14.25 2.24003 9.75997 2.23003 8.25997 2.32003C6.98997 2.38003 5.35996 2.62003 3.99996 3.99003C2.63996 5.35003 2.38995 6.98002 2.32995 8.25002C2.23995 9.76002 2.23995 14.25 2.32995 15.75C2.38995 17.02 2.62996 18.65 3.99996 20.02C5.36996 21.38 6.99997 21.63 8.25997 21.69C9.01997 21.73 10.52 21.75 12.02 21.75C13.52 21.75 15.01 21.73 15.76 21.69C17.03 21.63 18.66 21.39 20.03 20.02C21.39 18.66 21.64 17.03 21.7 15.76C21.79 14.25 21.79 9.77002 21.7 8.26002L21.69 8.25002ZM20.19 15.67C20.11 17.18 19.75 18.16 18.95 18.95C18.16 19.74 17.18 20.11 15.67 20.18C14.2 20.26 9.80997 20.26 8.31997 20.18C6.81997 20.1 5.83997 19.73 5.03997 18.94C4.24997 18.15 3.87996 17.17 3.80996 15.66C3.72996 14.22 3.72996 9.76002 3.80996 8.31002C3.88996 6.80002 4.24997 5.82002 5.03997 5.03002C5.82997 4.24002 6.81997 3.87003 8.31997 3.80003C9.05997 3.76003 10.52 3.74003 11.99 3.74003C13.46 3.74003 14.93 3.76003 15.67 3.80003C17.18 3.88003 18.16 4.24002 18.95 5.04002C19.74 5.83002 20.11 6.81003 20.18 8.32003C20.26 9.80003 20.26 14.19 20.18 15.67H20.19ZM12 7.25002C9.37996 7.25002 7.24996 9.38002 7.24996 12C7.24996 14.62 9.37996 16.75 12 16.75C14.62 16.75 16.75 14.62 16.75 12C16.75 9.38002 14.62 7.25002 12 7.25002ZM12 15.25C10.21 15.25 8.74996 13.79 8.74996 12C8.74996 10.21 10.21 8.75002 12 8.75002C13.79 8.75002 15.25 10.21 15.25 12C15.25 13.79 13.79 15.25 12 15.25ZM18.52 6.50002C18.52 7.05002 18.07 7.50002 17.52 7.50002C16.97 7.50002 16.52 7.05002 16.52 6.50002C16.52 5.95002 16.96 5.50002 17.52 5.50002C18.07 5.50002 18.52 5.95002 18.52 6.50002Z" fill="#353535" style="fill:#353535;fill:color(display-p3 0.2078 0.2078 0.2078);fill-opacity:1;"/>
</svg>
