<svg width="24" height="24" viewBox="0 0 24 24" fill="none" xmlns="http://www.w3.org/2000/svg">
<path d="M21.6501 11.52C21.5201 11.21 21.2801 10.98 20.9001 10.82L18.3101 10.08C16.2101 9.48996 14.5301 7.81996 13.9401 5.71996L13.2001 3.13996C13.0801 2.72996 12.7701 2.41996 12.3601 2.29996C12.0401 2.20996 11.7101 2.24996 11.4301 2.40996C11.1401 2.56996 10.9401 2.82996 10.8501 3.13996L10.1101 5.71996C9.52008 7.81996 7.84007 9.48996 5.73007 10.08L3.14011 10.82C2.73011 10.93 2.41008 11.26 2.30008 11.66C2.12008 12.31 2.49011 12.99 3.14011 13.17L5.73007 13.91C7.83007 14.5 9.51007 16.17 10.1001 18.27L10.8401 20.85C10.9901 21.37 11.4701 21.7399 12.0101 21.7399C12.5501 21.7399 13.0301 21.38 13.1901 20.85L13.9301 18.26C14.5201 16.16 16.2001 14.49 18.3101 13.89L20.9701 13.13C21.2801 13.01 21.5301 12.76 21.6501 12.45C21.7801 12.14 21.7701 11.8 21.6501 11.5V11.52ZM17.9001 12.47C15.3001 13.2 13.2301 15.27 12.4901 17.87L12.0201 19.53L11.5401 17.87C10.8001 15.27 8.7301 13.2 6.1301 12.47L4.47006 12L6.1301 11.53C8.7301 10.8 10.8001 8.72996 11.5401 6.12996L12.0201 4.46996L12.4901 6.12996C13.2301 8.72996 15.3001 10.8 17.9001 11.53L19.5601 12L17.9001 12.47ZM8.39011 18.24C8.42011 18.32 8.39009 18.4 8.31009 18.43L7.53012 18.65C6.82012 18.85 6.26009 19.3999 6.06009 20.1099L5.84012 20.89C5.84012 20.89 5.79008 20.9699 5.74008 20.9899C5.66008 21.0099 5.58009 20.97 5.56009 20.89L5.34012 20.1099C5.14012 19.3999 4.58009 18.85 3.87009 18.65L3.09012 18.43C3.09012 18.43 3.01008 18.38 2.99008 18.33C2.97008 18.25 3.01012 18.18 3.09012 18.15L3.87009 17.93C4.58009 17.73 5.14012 17.18 5.34012 16.47L5.56009 15.69C5.56009 15.69 5.61006 15.61 5.66006 15.59C5.74006 15.57 5.82012 15.61 5.84012 15.69L6.06009 16.47C6.26009 17.18 6.82012 17.73 7.53012 17.93L8.31009 18.15C8.31009 18.15 8.37011 18.19 8.39011 18.23V18.24ZM17.4701 4.87996C17.4701 4.87996 17.4201 4.84997 17.4101 4.81997C17.4001 4.76997 17.4201 4.71996 17.4701 4.69996L17.9901 4.54996C18.4601 4.41996 18.8301 4.04996 18.9701 3.57996L19.1201 3.05996C19.1201 3.05996 19.1501 3.00996 19.1801 2.99996C19.2301 2.98996 19.2801 3.00996 19.3001 3.05996L19.4501 3.57996C19.5801 4.04996 19.9501 4.41996 20.4301 4.54996L20.9501 4.69996C20.9501 4.69996 20.9901 4.72996 21.0001 4.74996C21.0201 4.79996 21.0001 4.85996 20.9501 4.87996L20.4301 5.02996C19.9601 5.15996 19.5901 5.52996 19.4501 5.99996L19.3001 6.51996C19.3001 6.51996 19.2701 6.56996 19.2401 6.57996C19.1901 6.58996 19.1401 6.56996 19.1201 6.51996L18.9701 5.99996C18.8401 5.52996 18.4701 5.15996 17.9901 5.02996L17.4701 4.87996Z" fill="#353535" style="fill:#353535;fill:color(display-p3 0.2078 0.2078 0.2078);fill-opacity:1;"/>
</svg>
