<svg width="24" height="24" viewBox="0 0 24 24" fill="none" xmlns="http://www.w3.org/2000/svg">
<path d="M18.69 6.81C18.62 6.76 18.55 6.73 18.48 6.69C18.45 6.33 18.39 5.97001 18.28 5.60001C18.2 5.37001 18.09 5.13 17.97 4.91C17.1 3.28 15.3 2.26001 13.27 2.26001H7.70999C7.07999 2.26001 6.55001 2.70999 6.45001 3.32999L4.26999 16.8C4.25999 16.87 4.25 16.94 4.25 16.99C4.25 17.64 4.77999 18.16 5.42999 18.16H7.78L7.41 20.42C7.37 20.73 7.45001 21.05 7.64001 21.3C7.83001 21.55 8.1 21.71 8.41 21.74C8.47 21.74 8.52999 21.76 8.57999 21.76H11.36C11.98 21.76 12.52 21.3 12.62 20.69L13.32 16.36H14.78C17.74 16.36 20.22 14.28 20.68 11.42C20.97 9.62001 20.2 7.85001 18.68 6.82001L18.69 6.81ZM7.89999 3.75H13.27C14.77 3.75 16.03 4.44001 16.65 5.60001C16.73 5.76001 16.81 5.92001 16.86 6.07001C16.97 6.42001 17.02 6.77 17.01 7.12V7.14001C17.01 7.28001 16.99 7.42999 16.97 7.57999C16.95 7.67999 16.92 7.77 16.9 7.87C16.45 9.81 14.66 11.24 12.59 11.25C12.58 11.25 12.57 11.25 12.56 11.25H10.01C9.83001 11.25 9.67001 11.29 9.51001 11.36C9.11001 11.53 8.80999 11.88 8.73999 12.32L8.03 16.65H5.82001L7.91 3.75H7.89999ZM19.21 11.17C18.87 13.3 17.01 14.85 14.79 14.85H13.16C12.52 14.85 11.99 15.3 11.89 15.92L11.19 20.25H8.97L10.19 12.75H12.56C12.92 12.75 13.27 12.72 13.61 12.66C13.72 12.64 13.83 12.6 13.93 12.58C14.16 12.53 14.38 12.48 14.6 12.4C14.72 12.36 14.84 12.3 14.96 12.25C15.15 12.17 15.34 12.09 15.51 11.99C15.63 11.92 15.74 11.84 15.86 11.77C16.02 11.66 16.18 11.56 16.34 11.44C16.45 11.35 16.55 11.26 16.65 11.16C16.79 11.03 16.93 10.9 17.05 10.76C17.14 10.65 17.23 10.54 17.32 10.43C17.44 10.28 17.54 10.13 17.65 9.95999C17.72 9.83999 17.79 9.72 17.86 9.59C17.95 9.42 18.03 9.24 18.1 9.06C18.15 8.93 18.2 8.8 18.25 8.66C18.27 8.58 18.31 8.50999 18.33 8.42999C19.06 9.14999 19.39 10.13 19.22 11.16L19.21 11.17Z" fill="#353535" style="fill:#353535;fill:color(display-p3 0.2078 0.2078 0.2078);fill-opacity:1;"/>
</svg>
