<svg width="24" height="24" viewBox="0 0 24 24" fill="none" xmlns="http://www.w3.org/2000/svg">
<path d="M19 9.36998C19 13.17 16.62 16.23 13.31 16.23C12.2 16.23 11.16 15.65 10.8 14.96C10.8 14.96 10.25 17.07 10.12 17.58C9.87 18.54 8.76998 20.42 8.09998 20.99L8.01001 20.21C7.91001 19.34 7.82999 17.99 8.04999 17.04C8.24999 16.18 9.34003 11.56 9.34003 11.56C9.34003 11.56 9.01001 10.9 9.01001 9.91998C9.01001 8.38998 9.88999 7.23999 10.99 7.23999C11.93 7.23999 12.38 7.94998 12.38 8.78998C12.38 9.73998 11.78 11.15 11.47 12.46C11.21 13.56 12.02 14.45 13.09 14.45C15.04 14.45 16.54 12.38 16.54 9.39998C16.54 6.75998 14.65 4.90999 11.96 4.90999C8.84002 4.90999 7.01001 7.25998 7.01001 9.69998C7.01001 10.65 7.37002 11.67 7.83002 12.22C7.92002 12.33 7.92997 12.43 7.90997 12.54C7.82997 12.89 7.63999 13.64 7.60999 13.79C7.55999 13.99 7.44999 14.03 7.23999 13.94C5.86999 13.3 5.01001 11.28 5.01001 9.66998C5.01001 6.18998 7.52 2.98999 12.25 2.98999C16.05 2.98999 19.01 5.71999 19.01 9.35999L19 9.36998Z" fill="#353535" style="fill:#353535;fill:color(display-p3 0.2078 0.2078 0.2078);fill-opacity:1;"/>
</svg>
