<svg width="24" height="24" viewBox="0 0 24 24" fill="none" xmlns="http://www.w3.org/2000/svg">
<path d="M18.93 9.47C18.47 9.49 18.02 9.62001 17.63 9.85001C16.19 8.97001 14.57 8.45001 12.96 8.32001L13.65 5.29001L15.51 5.66C15.67 6.66 16.53 7.44 17.58 7.44C18.74 7.44 19.68 6.5 19.68 5.34C19.68 4.18 18.74 3.23999 17.58 3.23999C16.84 3.23999 16.2 3.62001 15.82 4.20001L13.23 3.67999C12.83 3.59999 12.44 3.85 12.35 4.25L11.43 8.28C9.63 8.33 7.89002 8.83999 6.35002 9.76999C5.91002 9.50999 5.42002 9.37999 4.88002 9.39999C4.15002 9.41999 3.48001 9.73001 2.98001 10.26C1.95001 11.35 2.00002 13.08 3.10002 14.11C3.19002 14.19 3.28002 14.27 3.38002 14.34C3.38002 14.4 3.38002 14.46 3.38002 14.51C3.38002 17.95 7.25001 20.75 12.01 20.75C16.77 20.75 20.64 17.95 20.64 14.57C20.64 14.49 20.65 14.41 20.65 14.32C21.33 13.8 21.75 12.97 21.73 12.09C21.67 10.59 20.38 9.42 18.91 9.47H18.93ZM17.58 4.75C17.91 4.75 18.18 5.02001 18.18 5.35001C18.18 5.68001 17.91 5.95001 17.58 5.95001C17.25 5.95001 16.98 5.68001 16.98 5.35001C16.98 5.02001 17.25 4.75 17.58 4.75ZM19.57 13.25C19.3 13.39 19.13 13.68 19.16 13.98C19.17 14.14 19.17 14.3 19.16 14.52C19.16 17.13 15.96 19.26 12.03 19.26C8.10001 19.26 4.90001 17.14 4.90001 14.46C4.89001 14.3 4.89001 14.14 4.90001 13.98C4.92001 13.67 4.75001 13.37 4.47001 13.24C4.35001 13.18 4.24001 13.11 4.14001 13.02C3.65001 12.56 3.63001 11.78 4.09001 11.29C4.31001 11.05 4.62001 10.92 4.94001 10.91C4.95001 10.91 4.97001 10.91 4.98001 10.91C5.29001 10.91 5.59002 11.03 5.82002 11.24C6.08002 11.48 6.46001 11.51 6.75001 11.31C8.19001 10.33 9.87002 9.8 11.6 9.78H12.38C14.03 9.82 15.76 10.39 17.24 11.39C17.53 11.59 17.93 11.56 18.18 11.31C18.4 11.1 18.68 10.98 18.98 10.97C19.65 10.94 20.22 11.47 20.25 12.13C20.25 12.6 19.99 13.04 19.57 13.24V13.25ZM8.84001 14.83C8.09001 14.83 7.49002 14.22 7.49002 13.48C7.49002 12.74 8.09001 12.13 8.84001 12.13C9.59001 12.13 10.19 12.74 10.19 13.48C10.19 14.22 9.59001 14.83 8.84001 14.83ZM15.35 16.72C15.5 16.87 15.49 17.11 15.35 17.25C15.35 17.25 14.01 18.24 12.01 18.24C10.81 18.29 9.63001 17.92 8.67001 17.2C8.54001 17.04 8.56001 16.81 8.72001 16.69C8.85001 16.58 9.05 16.58 9.18 16.69C9.99 17.29 10.84 17.54 11.99 17.54C13.14 17.54 13.99 17.3 14.81 16.72C14.96 16.57 15.2 16.58 15.34 16.72H15.35ZM16.45 13.48C16.45 14.23 15.85 14.83 15.1 14.83C14.35 14.83 13.75 14.22 13.75 13.48C13.75 12.74 14.36 12.13 15.1 12.13C15.84 12.13 16.45 12.74 16.45 13.48Z" fill="#353535" style="fill:#353535;fill:color(display-p3 0.2078 0.2078 0.2078);fill-opacity:1;"/>
</svg>
