<svg width="24" height="24" viewBox="0 0 24 24" fill="none" xmlns="http://www.w3.org/2000/svg">
<path d="M21.6999 5.50998C21.6699 5.36998 21.5999 4.93998 21.1999 4.60998C20.7699 4.25998 20.2299 4.23998 20.0699 4.24998C19.3299 4.25998 18.4899 4.53998 13.6099 6.57998C12.0099 7.24998 8.74993 8.65999 3.93993 10.77C3.19993 11.07 2.34993 11.51 2.24993 12.29C2.10993 13.42 3.25993 13.78 4.18993 14.08L4.54992 14.19C5.26992 14.43 6.58993 14.82 7.33993 14.84C8.04993 14.86 8.77992 14.59 9.57992 14.04C10.7799 13.23 11.7699 12.56 12.5999 12C12.4699 12.12 12.3499 12.24 12.2499 12.33C11.8299 12.73 11.5299 13.01 11.4699 13.07C11.3499 13.2 11.2199 13.32 11.0999 13.44C10.5499 13.97 9.98993 14.52 10.0599 15.31C10.1299 16.06 10.7699 16.56 11.2399 16.87C11.9199 17.32 12.4699 17.7 13.0099 18.07C13.5899 18.47 14.1799 18.87 14.9399 19.37C15.1299 19.49 15.2999 19.62 15.4799 19.74C16.1699 20.24 16.8899 20.75 17.8199 20.75C17.8999 20.75 17.9699 20.75 18.0499 20.74C18.6899 20.68 19.5199 20.23 19.8499 18.42C20.3799 15.57 21.4799 9.10999 21.7399 6.37999C21.7699 6.06999 21.7399 5.69999 21.7099 5.51999L21.6999 5.50998ZM20.2399 6.22998C19.9899 8.88998 18.8799 15.41 18.3699 18.15C18.2099 19.04 17.9499 19.24 17.9099 19.25C17.4599 19.28 17.0199 19 16.3499 18.52C16.1599 18.39 15.9699 18.25 15.7699 18.11C15.0199 17.62 14.4399 17.22 13.8699 16.82C13.3199 16.44 12.7699 16.07 12.0799 15.61C11.6599 15.33 11.5799 15.18 11.5599 15.18C11.5999 15.04 11.9299 14.72 12.1499 14.51C12.2799 14.38 12.4199 14.25 12.5599 14.1C12.6199 14.03 12.8999 13.78 13.2799 13.42C17.1999 9.75998 17.2399 9.58998 17.3099 9.25998C17.3699 8.96998 17.3299 8.52998 16.9999 8.24998C16.6199 7.89998 16.1399 7.99997 15.9899 8.03997C15.7699 8.08997 15.6399 8.11998 8.73992 12.8C8.21992 13.16 7.78993 13.36 7.37993 13.33C6.98993 13.33 6.07992 13.1 5.01992 12.75L4.64992 12.63C4.42992 12.56 4.16992 12.48 3.95992 12.4C4.07992 12.33 4.25994 12.25 4.50994 12.15C4.50994 12.15 4.51993 12.15 4.52993 12.15C9.33993 10.05 12.5799 8.63998 14.1799 7.96998C18.3599 6.21998 19.5799 5.76998 20.0899 5.75998C20.0899 5.75998 20.1999 5.76999 20.2099 5.76999C20.2299 5.87999 20.2399 6.09999 20.2299 6.23999L20.2399 6.22998Z" fill="#353535" style="fill:#353535;fill:color(display-p3 0.2078 0.2078 0.2078);fill-opacity:1;"/>
</svg>
