<svg width="24" height="24" viewBox="0 0 24 24" fill="none" xmlns="http://www.w3.org/2000/svg">
<path d="M21.7201 17.8C21.1101 15.54 19.7001 13.59 17.7701 12.3C19.3701 11 20.5301 9.19001 21.0101 7.17001C21.0601 6.95001 21.0101 6.71 20.8701 6.53C20.7301 6.35 20.5101 6.23999 20.2801 6.23999H17.3601C17.0301 6.23999 16.7501 6.45001 16.6501 6.76001C16.1601 8.28001 15.0401 9.64001 13.9101 10.2V6.98999C13.9101 6.57999 13.5701 6.23999 13.1601 6.23999H10.2601C9.85011 6.23999 9.51011 6.57999 9.51011 6.98999V13.4C8.21011 12.55 6.96011 10.54 6.85011 6.97C6.84011 6.57 6.51011 6.23999 6.10011 6.23999H3.01012C2.81012 6.23999 2.61011 6.32 2.47011 6.47C2.33011 6.62 2.25012 6.81001 2.26012 7.01001C2.47012 14.35 6.42011 18.74 12.8101 18.74H13.1701C13.5801 18.74 13.9201 18.4 13.9201 17.99V14.89C15.3801 15.33 16.5701 16.55 17.1101 18.22C17.2101 18.53 17.5001 18.74 17.8201 18.74H21.0101C21.2401 18.74 21.4601 18.63 21.6101 18.45C21.7501 18.26 21.8001 18.02 21.7401 17.8H21.7201ZM18.3301 17.25C17.4101 14.98 15.4901 13.46 13.2201 13.24C13.0101 13.22 12.8001 13.29 12.6401 13.43C12.4801 13.57 12.3901 13.77 12.3901 13.99V17.24C7.29011 17.07 4.18011 13.65 3.77011 7.75H5.36011C5.72011 12.51 7.98012 14.76 10.0501 15.28C10.2701 15.33 10.5101 15.28 10.6901 15.14C10.8701 15 10.9801 14.78 10.9801 14.55V7.75H12.3801V11.21C12.3801 11.42 12.4701 11.63 12.6301 11.77C12.7901 11.91 13.0001 11.98 13.2101 11.96C15.0301 11.77 16.9501 10 17.8601 7.75H19.2401C18.6301 9.39 17.4701 10.81 15.9701 11.73C15.7401 11.87 15.6001 12.13 15.6101 12.4C15.6201 12.67 15.7801 12.92 16.0301 13.04C17.8101 13.93 19.1901 15.43 19.9301 17.25H18.3101H18.3301Z" fill="#353535" style="fill:#353535;fill:color(display-p3 0.2078 0.2078 0.2078);fill-opacity:1;"/>
</svg>
